<svg xmlns="http://www.w3.org/2000/svg" viewBox="0 0 18 18"><path d="M4.2 7.1H2.8a6.2 6.2 0 0 1 12-1.7c.1.4.5.6.9.4.4-.1.6-.5.4-.9a8 8 0 0 0-2.7-3.6 8 8 0 0 0-9.8.9 7.5 7.5 0 0 0-2.2 5.3A3 3 0 0 0 0 9.9v2.4c0 1.6 1.3 2.8 2.8 2.8h1.4c.4 0 .7-.3.7-.7V7.8c0-.3-.3-.7-.7-.7zm-.7 6.6h-.7c-.8 0-1.4-.6-1.4-1.4V9.9c0-.8.6-1.4 1.4-1.4h.7zm11.7-6.6h-1.4c-.4 0-.7.3-.7.7v7.3c0 .4-.3.7-.7.7h-2.1a2 2 0 0 0-1.3-.6c-.8 0-1.4.6-1.4 1.4S8.2 18 9 18c.5 0 1-.3 1.2-.7h2.1a2 2 0 0 0 2.1-2.1h.7c1.6 0 2.8-1.3 2.8-2.8V9.9a2.7 2.7 0 0 0-2.7-2.8zm1.4 5.2c0 .8-.6 1.4-1.4 1.4h-.7V8.5h.7c.8 0 1.4.6 1.4 1.4z"/></svg>
