<?xml version="1.0" encoding="UTF-8"?> <svg xmlns="http://www.w3.org/2000/svg" xmlns:xlink="http://www.w3.org/1999/xlink" version="1.1" id="Layer_1" x="0px" y="0px" viewBox="0 0 509.3 198.4" style="enable-background:new 0 0 509.3 198.4;" xml:space="preserve"> <style type="text/css"> .st0{fill:#FFFFFF;} .st1{fill:#59CBE8;enable-background:new ;} </style> <g> <g> <path class="st0" d="M508.6,140.6c-0.2,1.6-0.3,4-0.6,6c-0.6,4.5-1.7,8.9-3.4,13.1c-3,7.6-7.3,14.4-13,20.3 c-6.1,6.4-13.3,11.2-21.4,14.5c-4.1,1.7-8.4,2.9-12.8,3.5c-2.2,0.3-4.5,0.6-6.8,0.6c-1.6,0-3.3,0.1-4.9,0 c-7-0.1-13.8-1.5-20.4-4.1c-7.4-2.9-14-7.2-19.7-12.7c-6.9-6.6-12-14.3-15.3-23.3c-1.5-4.2-2.6-8.6-3.1-13 c-0.3-2.6-0.5-5.2-0.5-7.8c0-42.3,0-84.5,0-126.8c0-1,0-1.9,0.2-2.9c0.7-3.7,4-7.1,8.1-7.7c1.6-0.2,3.2-0.1,4.7,0.3 c3,0.8,6,3.7,6.7,7.3c0.1,0.7,0.2,1.4,0.2,2.1c0,0.5,0,1,0,1.5c0,21.2,0,42.3,0,63.5c0,20.9,0,41.9,0,62.8c0,3.3,0.4,6.5,1.2,9.7 c1.1,4.4,2.9,8.5,5.4,12.2c5.1,7.7,12,13.2,20.7,16.4c2.4,0.9,4.9,1.5,7.5,1.8c2.1,0.3,4.2,0.5,6.4,0.5c6.2,0,12.1-1.4,17.6-4.1 c9.2-4.5,15.8-11.5,19.9-20.8c1.4-3.2,2.4-6.6,2.9-10.1c0.2-1.3,0.3-2.6,0.4-3.8c0-0.2,0-0.4,0-0.5c0,0,0-0.1-0.1-0.1 c-0.1,0-0.2,0-0.2,0c-0.2,0.2-0.5,0.4-0.7,0.6c-1.6,1.5-3.4,2.8-5.2,3.9c-2.9,1.8-6.1,2.9-9.4,3.6c-2,0.4-4,0.5-6,0.5 c-0.4,0-0.9,0-1.3-0.1c-0.6-0.1-1.2-0.1-1.9-0.2c-3.2-0.2-6.4-0.8-9.5-1.8c-6.2-2-11.7-5.3-16.4-9.8c-3.5-3.3-6.3-7.1-8.5-11.4 c-1.6-3.1-2.8-6.3-3.6-9.7c-0.7-3.1-1-6.3-1-9.5c0-8.2,0-16.3,0-24.5c0-6.8,0-13.7,0-20.5c0-0.4,0-0.9,0-1.3 c0-1.9,0.6-3.7,1.6-5.3c0.3-0.6,0.8-1.1,1.2-1.6c1.3-1.3,2.9-2.2,4.7-2.7c0.7-0.2,1.5-0.3,2.2-0.3c1.9,0,3.8,0.3,5.4,1.4 c2.5,1.6,4.1,3.9,4.7,6.8c0.1,0.4,0.1,0.9,0.1,1.3c0,0.5,0,1.1,0,1.6c0,15,0,30.1,0,45.1c0,2.6,0.4,5,1.3,7.4 c1.2,3.4,3.1,6.2,5.7,8.7c0.1,0.1,0.2,0.2,0.3,0.3c3.2,2.7,6.7,4.6,10.9,5.3c5.1,0.9,9.9,0.2,14.4-2.4c4.9-2.8,8.4-6.9,10.4-12.2 c0.8-2.2,1.2-4.4,1.2-6.8c0-0.5,0-1,0-1.5c0-14.8,0-29.6,0-44.4c0-1,0-2,0.2-2.9c0.9-3.5,2.9-6,6.2-7.3c2.6-1.1,5.3-1,7.8,0.3 c2.1,1.1,3.7,2.6,4.7,4.7c0.7,1.4,1.1,2.8,1.1,4.3c0,0.4,0,0.7,0,1.1c0,25.7,0,45.5,0,71.2c0,0.3,0-3.6,0,1.4 c0,0.5-0.2,3.5-0.2,3.5S508.8,139.1,508.6,140.6z"></path> <path class="st0" d="M96.5,88c-0.8-3.7-2-7.2-3.6-10.6c-3-6.3-7-11.7-12.3-16.2c-4.1-3.6-8.7-6.4-13.8-8.5 c-5.5-2.3-11.3-3.5-17.3-3.6c-1.9,0-3.7,0-5.6,0.2c-3.1,0.2-6.1,0.7-9,1.6c-5.5,1.6-10.5,4.2-14.7,8.2c-0.1,0.1-0.2,0.2-0.3,0.2 c-0.1,0.1-0.2,0-0.2-0.1c-0.1-0.2-0.1-0.4-0.2-0.6c-0.1-0.5-0.1-1.1-0.2-1.6c-0.7-2.7-2.3-4.7-4.7-6.2c-0.8-0.5-1.8-0.8-2.7-1 c-1.6-0.3-3.2-0.3-4.7,0.1c-3.1,0.8-5.4,2.6-6.3,5.9C0.4,57.5,0,59,0,60.7c0,0.1,0,0.3,0,0.4c-0.2,1.5-0.2,3-0.2,4.5 c0,0.4,0,0.8,0.1,1.2C0,67,0,67.3,0,67.6c0,0.4,0,0.9,0,1.3c0,19.9,0,39.7,0,59.6c0,19.6,0,39.2,0,58.8c0,0.6,0,1.2,0,1.7 c0,0.5,0.1,1,0.1,1.5c0.7,4,4,6.7,6.8,7.5c2,0.5,3.9,0.5,5.9,0c3-0.8,6.7-4.1,6.9-8.9c0-0.6,0-1.2,0-1.7c0-16.7,0-33.3,0-50 c0-0.5,0-1,0-1.5c0-0.1,0-0.2,0.1-0.3c0-0.1,0.2-0.1,0.2-0.1c0.2,0.1,0.3,0.2,0.4,0.3c1.7,1.7,3.7,3.1,5.7,4.3 c2.2,1.3,4.4,2.4,6.8,3.4c4.2,1.7,8.5,2.7,13.1,2.9c3.3,0.2,6.6,0,9.8-0.4c3.1-0.4,6.1-1.2,9-2.2c3-1.1,6-2.5,8.8-4.1 c3.4-2,6.6-4.3,9.4-7.1c5.5-5.5,9.5-11.9,12-19.2c1.3-3.7,2-7.5,2.3-11.4c0.1-2.1,0.1-4.3,0.1-6.4C97.4,93,97,90.5,96.5,88z M77.4,100.9c-0.6,6-2.9,11.3-6.8,15.9c-4.2,5-9.5,8.2-15.8,9.7c-2.1,0.5-3.8,0.7-6.3,0.7c-10.2,0.1-18.9-5.5-23.7-12.4 c-2.2-3.1-3.8-6.5-4.6-10.2c-0.7-3.3-0.8-6.6-0.5-9.9c0.8-7.8,5.7-16.2,13.6-21.1c2.9-1.8,5.9-3.1,9.2-3.8 c2.9-0.6,5.9-0.8,8.9-0.5c6.1,0.6,11.4,2.9,16,6.8c4.6,3.9,7.8,8.8,9.3,14.7C77.5,94.1,77.7,97.5,77.4,100.9z"></path> <path class="st0" d="M374.4,80c-1.7-7.8-5.2-14.7-11-20.3c-7.6-7.5-16.7-11.5-27.4-12.1c-0.3,0-0.6,0-0.9,0 c-1.1,0-2.2,0.1-3.3,0.1c-2.8,0.1-5.5,0.6-8.1,1.4c-3,0.9-5.8,2.3-8.2,4.2c-0.8,0.6-1.5,1.3-2.3,2c-0.2,0.2-0.4,0.4-0.6,0.5 c-0.1,0.1-0.4,0.1-0.5-0.1c-0.2-0.4-0.4-0.7-0.5-1.1c-1-1.8-2.3-3.1-4.1-4.1c-2.1-1.2-4.4-1.4-6.7-1c-3.8,0.7-6.5,3.8-7.3,6.5 c-0.1,0.4-0.2,0.9-0.3,1.3c-0.2,0.9-0.2,1.8-0.2,2.6c0,19.1,0,38.1,0,57.2c0,0.6,0,1.2,0,1.7c-0.2,4-3.5,7-6.1,7.7 c0,0-0.1,0-0.1,0c-1.3,0.4-2.6,0.4-4,0.3c-1.1-0.1-2.1-0.5-3-1c-1.2-0.7-2.2-1.6-3-2.7c-0.8-1.1-1.3-2.2-1.5-3.5 c-0.1-0.8-0.2-1.7-0.2-2.5c0-9.6,0-19.2,0-28.7c0,0,0,0-0.1,0c0-8.9,0-17.8,0-26.7c0-0.7,0-1.4,0-2.1c0-0.3,0-0.5,0-0.8 c-0.1-2.7-1-4.9-2.9-6.8c-1.1-1.1-2.4-1.9-3.9-2.4c-1.1-0.3-2.3-0.4-3.4-0.4c-4.1,0.2-7.7,2.9-8.9,6.8c-0.3,1.1-0.4,2.2-0.4,3.3 c0,19.7,0,39.4,0,59.1c0,2,0.2,3.9,0.6,5.8c1.4,6.2,4.4,11.4,9.2,15.5c5.4,4.7,11.6,7.1,18.7,7.2c2.7,0,5.3-0.3,7.9-1 c5-1.4,9.4-3.9,13-7.7c5.3-5.6,8.1-12.2,8.2-19.9c0-2.2,0-4.3,0-6.5c0-5.9,0-11.8,0-17.7c0-1.3,0-2.7,0-4c0-0.9,0-1.8,0-2.7 c0.1-2.4,0.6-4.7,1.4-7c3.1-7.8,10.7-13.6,19.6-13.8c2.1,0,4.2,0.2,6.2,0.9c2,0.7,3.9,1.7,5.7,2.9c1.7,1.1,3.1,2.5,4.4,4.1 c0.9,1.1,1.7,2.3,2.3,3.5c1.3,2.4,2.2,5,2.5,7.8c0.1,1.1,0.1,2.1,0.1,3.2c0,15,0,30,0,45c0,0.4,0,0.9,0,1.3c0,4.7,3.5,7.8,6.4,8.9 c2.2,0.8,4.4,0.8,6.5,0.2c2.6-0.8,4.5-2.5,5.8-4.9c0.6-1.1,0.9-2.3,1-3.6c0-0.6,0-1.2,0-1.7c0-11.5,0-23,0-34.5 c0-3.9,0-7.8,0-11.7C375.2,85.4,375,82.7,374.4,80z"></path> <path class="st0" d="M240.4,59.5c0-0.4,0-0.9,0-1.3c-0.1-1.4-0.5-2.8-1.2-4c-2.5-4.3-7.1-5.8-11.4-4.6c-2.4,0.7-4.2,2.2-5.6,4.3 c-0.6,0.9-1,1.9-1.2,2.9c-0.2,0.7-0.2,1.4-0.3,2.1c0,0.1-0.1,0.1-0.1,0.2c0,0.1-0.3,0.1-0.4,0c-0.3-0.3-0.6-0.5-0.9-0.8 c-1.9-1.6-3.9-3.1-6-4.4c-2.4-1.4-5-2.5-7.7-3.4c-3.9-1.4-8-2.1-12.1-2.2c-2.2-0.1-4.3,0-6.5,0.2c-2.9,0.3-5.7,0.8-8.5,1.6 c-8.4,2.4-15.7,6.7-21.8,13c-5.9,6.1-10,13.3-12.2,21.5c-0.7,2.7-1.1,5.5-1.4,8.3c-0.3,3.2-0.2,6.4,0.1,9.6 c0.5,4.3,1.5,8.5,3.2,12.6c2.7,6.6,6.5,12.4,11.7,17.3c5.9,5.6,12.9,9.4,20.7,11.5c3.8,1,7.7,1.6,11.7,1.6c2.6,0,5.2,0,7.8-0.4 c3-0.4,5.9-1,8.8-2c4.7-1.6,8.9-3.9,12.6-7.3c0.1-0.1,0.2-0.2,0.3-0.2c0.1,0,0.2,0,0.3,0c0,0.2,0.1,0.4,0.1,0.7 c0.1,0.7,0.2,1.3,0.4,1.9c1,3.3,4.1,6,7.5,6.6c1.2,0.2,2.5,0.2,3.7,0c3.3-0.5,6.4-3.1,7.5-6.3c0.3-0.8,0.5-1.5,0.7-2.3 c0.1-0.3,0.1-0.5,0.1-0.8c0-0.4,0-0.7,0-1.1C240.4,109.5,240.4,84.5,240.4,59.5z M220.5,97.9c-0.2,5.2-1.7,9.9-4.5,14.3 c-3.7,5.8-8.9,9.8-15.4,12.1c-1.9,0.7-3.9,1.1-6,1.3c-1.3,0.1-2.7,0.2-4,0.2c-5.7-0.2-10.9-1.9-15.6-5.2 c-5.9-4.2-9.8-9.7-11.7-16.7c-0.6-2.3-0.8-4.7-0.9-6.7c0-7.9,2.7-14.4,7.7-19.9c3.7-4.1,8.3-6.9,13.6-8.4c2.1-0.6,4.3-0.9,6.6-1 c2.5-0.1,5.1,0.1,7.5,0.7c3,0.7,5.7,1.8,8.3,3.4c6.3,3.8,10.6,9.3,13,16.3C220.3,91.3,220.6,94.6,220.5,97.9z"></path> <path class="st0" d="M130.5,9.4c-0.2-3.8-2.1-6.6-5.4-8.3c-2.3-1.2-4.8-1.3-7.4-0.7c-3.2,0.8-6.5,4-7,8.1 c-0.1,0.8-0.1,1.7-0.1,2.5c0,41.1,0,82.1,0,123.2c0,0.4,0,0.7,0,1.1c0,0.8,0.1,1.7,0.3,2.5c0.7,2.7,2.3,4.7,4.6,6.1 c1.3,0.8,2.8,1.2,4.3,1.3c1,0.1,2-0.1,2.9-0.3c4.1-0.8,7.5-4.5,7.7-8.8c0-0.6,0-1.2,0-1.9c0-20.5,0-41,0-61.5 c0-20.5,0-41.1,0-61.6C130.5,10.5,130.5,10,130.5,9.4z"></path> </g> <path class="st1" d="M276.6,32.5c0.1,1-0.1,2.1-0.4,3.1c-0.5,2.2-1.7,4.1-3.3,5.7c-0.3,0.3-0.7,0.7-1.1,0.9c-1.6,1.1-3.3,1.8-5.3,2 c-1.8,0.2-3.5,0.1-5.3-0.4c-1.3-0.4-2.6-1-3.6-1.9c-1.9-1.6-3.2-3.6-4.1-5.9c-0.3-0.9-0.5-1.8-0.5-2.7c-0.2-4.4,1.4-8,5-10.5 c1.5-1.1,3.2-1.7,5-1.9c1.8-0.2,3.6-0.1,5.4,0.4c3.4,1,7.2,4.3,7.9,8.8C276.5,30.8,276.6,31.6,276.6,32.5z"></path> <g> <path class="st1" d="M225.5,162.4c-1.5-1.3-3.3-2.2-5.2-2.9c-3.3-1.1-8.3-1.2-11.8-0.2c-3.3,1-6,2.8-8.1,5.5 c-0.9,1.2-1.7,2.5-2.2,3.9c-0.7,1.8-1.2,3.6-1.4,5.5c-0.4,2.9-0.3,5.8,0.4,8.7c0.4,1.9,1.1,3.6,2.1,5.3c2,3.4,5,5.7,8.8,6.8 c2.2,0.6,4.5,0.7,6.7,0.5c1.2-0.1,2.5-0.3,3.6-0.7c1.5-0.5,2.9-1.3,4.1-2.4c0.1-0.1,0.2-0.2,0.3-0.3c0.1-0.1,0.1-0.1,0.2-0.1 c0.1-0.1,0.3,0,0.3,0.1c0,0.2,0.1,0.3,0.1,0.5c0.1,0.6,0.2,1.2,0.3,1.8c0.1,0.4,0.3,0.5,0.6,0.5c1.5,0,3,0,4.5,0 c0.1,0,0.2,0,0.3,0c0.1,0,0.3-0.2,0.3-0.4c0-0.4,0-0.8,0-1.2c0-5.6,0-11.3,0-16.9c0-0.3,0-0.6,0-0.9c0-0.1,0-0.3-0.1-0.4 c0-0.1-0.1-0.2-0.2-0.2c-0.2,0-0.3-0.1-0.5-0.1c-4.6,0-9.2,0-13.8,0c-0.2,0-0.4,0-0.5,0.1c-0.1,0-0.2,0.2-0.3,0.3 c-0.1,0.1-0.1,0.3-0.1,0.4c0,1.6,0,3.3,0,4.9c0,0.1,0,0.3,0.1,0.4c0,0.1,0.2,0.2,0.2,0.3c0.3,0.1,0.5,0.1,0.8,0.1 c1.7,0,3.4,0,5.1,0c0.4,0,0.8,0,1.2,0c0.3,0,0.5,0.2,0.5,0.5c0,1-0.1,2-0.5,3c-0.7,2.2-2.2,3.6-4.4,4.2c-1.4,0.4-2.9,0.5-4.3,0.3 c-2.7-0.3-4.7-1.6-6.2-3.9c-0.7-1.2-1.2-2.5-1.5-3.8c-0.5-2.1-0.6-4.3-0.4-6.5c0.1-1.3,0.3-2.6,0.7-3.9c0.3-1.1,0.8-2.2,1.5-3.1 c1.1-1.6,2.5-2.6,4.3-3.1c1.8-0.5,3.6-0.5,5.4-0.1c2.4,0.5,4.2,1.9,5.1,4.2c0.1,0.2,0.2,0.5,0.4,0.7c0.3,0.1,0.7,0.1,1.1,0.1 c2.1,0,4.2,0.1,6.2-0.1c0,0,0.1,0,0.1-0.1c0.1-0.4,0-0.9-0.2-1.3C228.7,166.1,227.4,164.1,225.5,162.4z"></path> <path class="st1" d="M153.6,188.8c-0.4,0-0.8,0-1.2,0c-3.6,0-7.2,0-10.8,0c-1.6,0-3.3,0-4.9,0c-0.4,0-0.7,0-1.1,0 c-0.4,0-0.6-0.2-0.6-0.7c0,0,0-0.1,0-0.1c0-2.5,0-5.1,0-7.6c0-0.1,0-0.3,0-0.4c0-0.2,0.2-0.3,0.4-0.3c0.4,0,0.9,0,1.3,0 c4.5,0,9,0,13.4,0c0.4,0,0.9,0,1.3,0c0.1,0,0.3,0,0.4-0.1c0.1,0,0.2-0.1,0.2-0.2c0-0.2,0.1-0.3,0.1-0.5c0-1.6,0-3.2,0-4.8 c0-0.1,0-0.3,0-0.4c0-0.1-0.2-0.3-0.4-0.4c-0.4,0-0.9,0-1.3,0c-4.5,0-9.1,0-13.6,0c-0.4,0-0.8,0-1.2,0c-0.1,0-0.3,0-0.4-0.1 c-0.1,0-0.2-0.1-0.2-0.2c0-0.2-0.1-0.3-0.1-0.5c0-2,0-4.1,0-6.1c0-0.1,0-0.3,0-0.4c0-0.2,0.2-0.3,0.4-0.3c0.3,0,0.6,0,0.9,0 c1.2,0,2.3,0,3.5,0c3.8,0,7.5,0,11.3,0c0.4,0,0.9,0,1.3,0c0.3,0,0.5-0.2,0.5-0.5c0-0.1,0-0.3,0-0.4c0-1.5,0-2.9,0-4.4 c0-0.2,0-0.4,0-0.5c0-0.2-0.2-0.4-0.4-0.4c-0.5,0-1,0-1.5,0c-7.2,0-14.5,0-21.7,0c-0.4,0-0.8,0-1.2,0c-0.5,0-0.7,0.2-0.7,0.6 c0,0.4,0,0.9,0,1.3c0,5.4,0,10.7,0,16.1c0,5.3,0,10.6,0,16c0,2.1-0.2,1.9,1.8,1.9c7.4,0,14.7,0,22.1,0c0.4,0,0.8,0,1.2,0 c0.3,0,0.5-0.2,0.5-0.5c0.3-1.8,0.5-3.5,0.8-5.3c0,0,0-0.1,0-0.1C153.9,189.1,153.7,188.9,153.6,188.8z"></path> <path class="st1" d="M306.6,193.4c-1.7-4.9-3.5-9.8-5.2-14.7c-2.1-6-4.3-12-6.4-18c-0.1-0.3-0.2-0.7-0.4-1 c-0.1-0.3-0.3-0.4-0.6-0.5c-0.3,0-0.6,0-0.9,0c-1.2,0-2.3,0-3.5,0c0,0,0,0,0,0c-1.4,0-2.8,0-4.1,0c-0.7,0-0.9,0.1-1.1,0.7 c-0.1,0.3-0.2,0.6-0.3,0.9c-3.3,9.6-6.5,19.1-9.8,28.7c-0.5,1.6-1.1,3.1-1.6,4.7c-0.1,0.2-0.1,0.4-0.1,0.6c0,0.1,0.1,0.2,0.1,0.2 c0.2,0.1,0.4,0.1,0.7,0.1c2,0,3.9,0,5.9,0c0.1,0,0.3,0,0.4,0c0.2,0,0.4-0.2,0.5-0.4c0.1-0.3,0.2-0.6,0.3-0.9 c0.6-1.9,1.3-3.8,1.9-5.7c0.1-0.3,0.2-0.6,0.3-0.9c0.1-0.3,0.3-0.4,0.6-0.5c0.2,0,0.4,0,0.7,0c3.6,0,7.3,0,10.9,0 c0.3,0,0.5,0,0.8,0c0.2,0,0.3,0.1,0.4,0.3c0.1,0.3,0.3,0.7,0.4,1c0.7,1.8,1.3,3.7,2,5.5c0.1,0.4,0.3,0.7,0.4,1.1 c0.1,0.2,0.3,0.3,0.5,0.4c0.1,0,0.2,0,0.3,0c2.2,0,4.4,0,6.7,0c0,0,0.1,0,0.1,0c0.4,0,0.6-0.2,0.5-0.6 C306.9,194.1,306.7,193.8,306.6,193.4z M293.8,180.4c-1,0-2,0-2.9,0c-0.5,0-1,0-1.5,0c0,0,0,0,0,0c-1.2,0-2.4,0-3.6,0 c-0.2,0-0.4,0-0.7,0c-0.3,0-0.4-0.2-0.4-0.4c0.1-0.3,0.2-0.7,0.3-1c0.9-2.8,1.7-5.6,2.6-8.4c0.4-1.4,0.8-2.9,1.3-4.3 c0.1-0.3,0.2-0.6,0.3-0.9c0,0,0.1,0,0.1,0c0,0,0.1,0,0.1,0.1c0.1,0.2,0.2,0.3,0.2,0.5c1.3,4.3,2.7,8.5,4.1,12.8 c0.1,0.4,0.3,0.8,0.4,1.1C294.3,180.2,294.1,180.4,293.8,180.4z"></path> <path class="st1" d="M374.6,188.8c-0.3,0-0.6,0-0.9,0c-4.6,0-9.1,0-13.7,0c-0.4,0-0.8,0-1.2-0.1c-0.1,0-0.3-0.2-0.3-0.4 c0-0.5,0-1,0-1.5c0-8.6,0-17.1,0-25.7c0-0.4,0-0.9,0-1.3c0-0.1,0-0.3-0.1-0.4c0-0.1-0.1-0.2-0.3-0.3c-0.2-0.1-0.4-0.1-0.7-0.1 c-2,0-3.9,0-5.9,0c-0.1,0-0.3,0-0.4,0c-0.3,0-0.5,0.2-0.5,0.5c0,0.4,0,0.9,0,1.3c0,5.4,0,10.8,0,16.2s0,10.8,0,16.2 c0,1.7-0.2,1.6,1.7,1.6c7.2,0,14.4,0,21.5,0c0.3,0,0.5,0,0.8,0c0.1,0,0.3,0,0.4,0c0.1,0,0.4-0.2,0.4-0.3c0.1-0.3,0.1-0.5,0.2-0.8 c0.2-1.2,0.4-2.4,0.5-3.6C376.3,188.7,376.5,188.8,374.6,188.8z"></path> <path class="st1" d="M83.3,188.8c-0.4,0-0.8,0-1.2,0c-4.8,0-9.7,0-14.5,0c-0.4,0-0.8,0-1.2,0c-0.2,0-0.4-0.2-0.4-0.3 c0-0.5-0.1-1-0.1-1.5c0-8.6,0-17.2,0-25.8c0-0.4,0-0.9,0-1.3c0-0.4-0.2-0.6-0.7-0.6c-0.2,0-0.4,0-0.7,0c-1.6,0-3.2,0-4.8,0 c-1.7,0-1.6-0.1-1.6,1.7c0,3.9,0,7.9,0,11.8c0,6.9,0,13.7,0,20.6c0,0.4,0,0.9,0,1.3c0,0.2,0.2,0.4,0.4,0.4c0.4,0,0.9,0,1.3,0 c7.1,0,14.2,0,21.3,0c0.4,0,0.7,0,1.1,0c0.1,0,0.3,0,0.4-0.1c0.1-0.1,0.2-0.2,0.3-0.3c0.1-0.2,0.1-0.3,0.1-0.5 c0.2-1.6,0.5-3.2,0.7-4.9c0-0.1,0-0.3,0-0.4C83.6,188.9,83.5,188.8,83.3,188.8z"></path> </g> </g> </svg> 