<svg fill="none" viewBox="0 0 24 24" xml:space="preserve" xmlns="http://www.w3.org/2000/svg"><g clip-rule="evenodd" fill="rgb(0,0,0)" fill-rule="evenodd"><path d="m3 3.25c.41421 0 .75.33579.75.75v16c0 .4142-.33579.75-.75.75s-.75-.3358-.75-.75v-16c0-.41421.33579-.75.75-.75z"/><path d="m12.5 3.25c.4142 0 .75.33579.75.75v16c0 .4142-.3358.75-.75.75s-.75-.3358-.75-.75v-16c0-.41421.3358-.75.75-.75z"/><path d="m2.25 12c0-.4142.33579-.75.75-.75h9.5c.4142 0 .75.3358.75.75s-.3358.75-.75.75h-9.5c-.41421 0-.75-.3358-.75-.75z"/><path d="m19.7798 8.81238c.2842.11416.4705.38967.4705.69595v10.49167c0 .4142-.3358.75-.75.75s-.75-.3358-.75-.75v-8.6246l-1.0954 1.1435c-.2866.2991-.7613.3093-1.0604.0227-.2992-.2865-.3093-.7613-.0228-1.0604l2.387-2.4917c.2119-.22117.5369-.29129.8211-.17712z"/></g></svg>