<svg fill="none" xml:space="preserve" viewBox="0 0 24 24" xmlns="http://www.w3.org/2000/svg"><g clip-rule="evenodd" fill="rgb(0,0,0)" fill-rule="evenodd"><path d="m3 3.25c.41421 0 .75.33579.75.75v16c0 .4142-.33579.75-.75.75s-.75-.3358-.75-.75v-16c0-.41421.33579-.75.75-.75z"/><path d="m12 3.25c.4142 0 .75.33579.75.75v16c0 .4142-.3358.75-.75.75s-.75-.3358-.75-.75v-16c0-.41421.3358-.75.75-.75z"/><path d="m2.75 12c0-.4142.33579-.75.75-.75h8c.4142 0 .75.3358.75.75s-.3358.75-.75.75h-8c-.41421 0-.75-.3358-.75-.75z"/><path d="m18.5 10.75c-.8359 0-1.75.6597-1.75 1.75 0 .4142-.3358.75-.75.75s-.75-.3358-.75-.75c0-2.0763 1.7526-3.25 3.25-3.25 1.4975 0 3.25 1.1737 3.25 3.25 0 .9381-.4119 1.7602-.9266 2.4617-.513.6991-1.1852 1.353-1.8035 1.9476-.0321.0309-.064.0615-.0958.0921-.6018.5784-1.145 1.1004-1.5521 1.6209-.177.2262-.3136.4343-.4131.6277h4.0411c.4142 0 .75.3358.75.75s-.3358.75-.75.75h-5c-.4142 0-.75-.3358-.75-.75 0-.8822.4335-1.6538.9405-2.302.4755-.6077 1.092-1.1998 1.6685-1.7535.0406-.039.081-.0778.1211-.1163.6317-.6075 1.2095-1.1754 1.634-1.7539.4228-.5762.6359-1.0874.6359-1.5743 0-1.0903-.9141-1.75-1.75-1.75z"/></g></svg>