<svg id="svg6" clip-rule="evenodd" fill-rule="evenodd" height="512" stroke-linejoin="round" stroke-miterlimit="2" viewBox="0 0 32 32" width="512" xmlns="http://www.w3.org/2000/svg" xmlns:svg="http://www.w3.org/2000/svg"><path id="path2" d="m17 26v-7h-2v7h-1c-.552 0-1 .448-1 1s.448 1 1 1h4c.552 0 1-.448 1-1s-.448-1-1-1zm-12-9h22c.552 0 1-.448 1-1s-.448-1-1-1h-22c-.552 0-1 .448-1 1s.448 1 1 1zm10-11v7h2v-7h4v1c0 .552.448 1 1 1s1-.448 1-1v-2c0-.552-.448-1-1-1h-12c-.552 0-1 .448-1 1v2c0 .552.448 1 1 1s1-.448 1-1v-1z"/></svg>