<?xml version="1.0" encoding="utf-8"?>
<!-- Generator: Adobe Illustrator 27.7.0, SVG Export Plug-In . SVG Version: 6.00 Build 0)  -->
<svg version="1.1" id="Layer_1" xmlns="http://www.w3.org/2000/svg" xmlns:xlink="http://www.w3.org/1999/xlink" x="0px" y="0px"
	 viewBox="0 0 500 500" style="enable-background:new 0 0 500 500;" xml:space="preserve">
<style type="text/css">
	.st0{fill:#59CBE8;}
	.st1{fill:#FFFFFF;}
</style>
<rect class="st0" width="500" height="500"/>
<path class="st1" d="M357.2,184.3c-1.8-8.3-4.5-16.1-8-23.7c-6.7-14.1-15.6-26.1-27.5-36.2c-9.2-8-19.4-14.3-30.8-19
	c-12.3-5.1-25.2-7.8-38.6-8c-4.2,0-8.3,0-12.5,0.4c-6.9,0.4-13.6,1.6-20.1,3.6c-12.3,3.6-23.5,9.4-32.8,18.3
	c-0.2,0.2-0.4,0.4-0.7,0.4c-0.2,0.2-0.4,0-0.4-0.2c-0.2-0.4-0.2-0.9-0.4-1.3c-0.2-1.1-0.2-2.5-0.4-3.6c-1.6-6-5.1-10.5-10.5-13.8
	c-1.8-1.1-4-1.8-6-2.2c-3.6-0.7-7.1-0.7-10.5,0.2c-6.9,1.8-12.1,5.8-14.1,13.2c-1.1,3.8-2,7.1-2,10.9c0,0.2,0,0.7,0,0.9
	c-0.4,3.4-0.4,6.7-0.4,10.1c0,0.9,0,1.8,0.2,2.7c0.2,0.4,0.2,1.1,0.2,1.8c0,0.9,0,2,0,2.9c0,44.5,0,88.7,0,133.1
	c0,43.8,0,87.6,0,131.4c0,1.3,0,2.7,0,3.8c0,1.1,0.2,2.2,0.2,3.4c1.6,8.9,8.9,15,15.2,16.8c4.5,1.1,8.7,1.1,13.2,0
	c6.7-1.8,15-9.2,15.4-19.9c0-1.3,0-2.7,0-3.8c0-37.3,0-74.4,0-111.7c0-1.1,0-2.2,0-3.4c0-0.2,0-0.4,0.2-0.7c0-0.2,0.4-0.2,0.4-0.2
	c0.4,0.2,0.7,0.4,0.9,0.7c3.8,3.8,8.3,6.9,12.7,9.6c4.9,2.9,9.8,5.4,15.2,7.6c9.4,3.8,19,6,29.3,6.5c7.4,0.4,14.7,0,21.9-0.9
	c6.9-0.9,13.6-2.7,20.1-4.9c6.7-2.5,13.4-5.6,19.7-9.2c7.6-4.5,14.7-9.6,21-15.9c12.3-12.3,21.2-26.6,26.8-42.9
	c2.9-8.3,4.5-16.8,5.1-25.5c0.2-4.7,0.2-9.6,0.2-14.3C359.3,195.5,358.4,189.9,357.2,184.3z M314.6,213.1
	c-1.3,13.4-6.5,25.2-15.2,35.5c-9.4,11.2-21.2,18.3-35.3,21.7c-4.7,1.1-8.5,1.6-14.1,1.6c-22.8,0.2-42.2-12.3-52.9-27.7
	c-4.9-6.9-8.5-14.5-10.3-22.8c-1.6-7.4-1.8-14.7-1.1-22.1c1.8-17.4,12.7-36.2,30.4-47.1c6.5-4,13.2-6.9,20.6-8.5
	c6.5-1.3,13.2-1.8,19.9-1.1c13.6,1.3,25.5,6.5,35.7,15.2c10.3,8.7,17.4,19.7,20.8,32.8C314.8,197.9,315.2,205.5,314.6,213.1z"/>
</svg>
