<svg viewBox="0 0 48 48" xmlns="http://www.w3.org/2000/svg"><path d="m7.6 47.5h32.8c3.4 0 6.2-2.8 6.2-6.2v-31.1c0-3.4-2.8-6.2-6.2-6.2h-2.5v-1.8c0-1-.8-1.7-1.7-1.7-1 0-1.7.8-1.7 1.7v1.8h-20.9v-1.8c0-1-.8-1.7-1.7-1.7s-1.7.8-1.7 1.7v1.8h-2.6c-3.4 0-6.2 2.8-6.2 6.2v31.1c0 3.4 2.8 6.2 6.2 6.2zm-2.7-37.3c0-1.5 1.2-2.8 2.8-2.8h2.5v1.7c0 1 .8 1.7 1.7 1.7s1.7-.8 1.7-1.7v-1.6h20.9v1.7c0 1 .8 1.7 1.7 1.7 1 0 1.7-.8 1.7-1.7v-1.7h2.5c1.5 0 2.8 1.2 2.8 2.8v5.1h-38.3zm0 8.6h38.3v22.5c0 1.5-1.2 2.8-2.8 2.8h-32.8c-1.5 0-2.8-1.2-2.8-2.8v-22.5z"/></svg>
