<svg viewBox="0 0 21 23" fill="none" xmlns="http://www.w3.org/2000/svg">
<path d="M14.8355 22.7497H2.47561C1.5118 22.7497 0.730469 22.0137 0.730469 21.1058V5.65671C0.730469 4.74881 1.5118 4.01282 2.47561 4.01282H14.8378C15.8016 4.01282 16.583 4.74881 16.583 5.65671V21.1058C16.583 21.5422 16.3988 21.9607 16.071 22.269C15.7432 22.5774 15.2987 22.7503 14.8355 22.7497ZM3.08641 20.5283H14.2223V6.2343H3.08877L3.08641 20.5283Z" fill="#F88379"/>
<path d="M19.6915 19.9045C19.0403 19.9045 18.5123 19.4072 18.5123 18.7938V2.22149H6.76802C6.1168 2.22149 5.58887 1.72419 5.58887 1.11074C5.58887 0.497297 6.1168 0 6.76802 0H19.1255C20.0893 0 20.8707 0.736 20.8707 1.6439V18.7938C20.8707 19.4072 20.3427 19.9045 19.6915 19.9045Z" fill="#F88379"/>
</svg>
