<svg viewBox="0 0 22 22" fill="none" xmlns="http://www.w3.org/2000/svg">
<path d="M21.6122 20.0987C21.6122 20.8263 21.0224 21.4162 20.2947 21.4162H1.84973C1.1221 21.4162 0.532227 20.8263 0.532227 20.0987C0.532227 19.3711 1.1221 18.7812 1.84973 18.7812H20.2947C21.0224 18.7812 21.6122 19.3711 21.6122 20.0987ZM10.1406 15.925C10.3979 16.1823 10.735 16.3109 11.0722 16.3109C11.4093 16.3109 11.7466 16.1822 12.0038 15.925L16.6718 11.2571C17.1863 10.7425 17.1863 9.90835 16.6718 9.39383C16.1573 8.8793 15.3231 8.8793 14.8086 9.39383L12.3897 11.8127V1.65368C12.3897 0.926051 11.7999 0.336182 11.0722 0.336182C10.3446 0.336182 9.75473 0.926051 9.75473 1.65368V11.8127L7.33588 9.39383C6.82135 8.8793 5.98717 8.8793 5.47264 9.39383C4.95812 9.90835 4.95812 10.7425 5.47264 11.2571L10.1406 15.925Z" fill="#F88379"/>
</svg>
