<svg width="16" height="18" viewBox="0 0 16 18" fill="none" xmlns="http://www.w3.org/2000/svg">
<path d="M1.82213 15.1567C2.00208 15.1567 2.03807 15.1387 2.20003 15.1027L5.43921 14.4549C5.78113 14.3649 6.12304 14.2029 6.39297 13.933L14.239 6.08697C15.4447 4.88127 15.4447 2.81179 14.239 1.6061L13.5732 0.904273C12.3675 -0.301424 10.28 -0.301424 9.0743 0.904273L1.22828 8.7683C0.976339 9.02023 0.796384 9.38014 0.706406 9.72206L0.0225783 12.9972C-0.0673989 13.6091 0.112556 14.2029 0.544447 14.6348C0.886361 14.9767 1.39023 15.1567 1.82213 15.1567ZM2.43397 10.064L10.28 2.19995C10.8019 1.67808 11.7556 1.67808 12.2595 2.19995L12.9433 2.88378C13.5552 3.49562 13.5552 4.3594 12.9433 4.95325L5.1153 12.8173L1.78613 13.3751L2.43397 10.064Z" fill="#16142C"/>
<path d="M14.1669 16.2725H0.886244C0.364376 16.2725 0.0224609 16.6144 0.0224609 17.1362C0.0224609 17.6581 0.454353 18 0.886244 18H14.0949C14.6168 18 15.0487 17.6581 15.0487 17.1362C15.0307 16.6144 14.5988 16.2725 14.1669 16.2725Z" fill="#16142C"/>
</svg>
