<svg width="16" height="16" viewBox="0 0 16 16" fill="none" xmlns="http://www.w3.org/2000/svg">
<path d="M7.8208 0.179199C3.49825 0.179199 0 3.67705 0 8C0 12.3225 3.49785 15.8208 7.8208 15.8208C12.1434 15.8208 15.6416 12.3229 15.6416 8C15.6416 3.67751 12.1437 0.179199 7.8208 0.179199ZM7.8208 14.7295C4.11014 14.7295 1.09128 11.7107 1.09128 8C1.09128 4.2893 4.11014 1.27048 7.8208 1.27048C11.5315 1.27048 14.5503 4.2893 14.5503 8C14.5503 11.7107 11.5315 14.7295 7.8208 14.7295Z" fill="#16142C"/>
<path d="M7.82101 6.69849C7.35776 6.69849 7.02832 6.89412 7.02832 7.18236V11.1046C7.02832 11.3516 7.35776 11.5987 7.82101 11.5987C8.26367 11.5987 8.62396 11.3516 8.62396 11.1046V7.1823C8.62396 6.89409 8.26367 6.69849 7.82101 6.69849Z" fill="#16142C"/>
<path d="M7.82117 4.2793C7.34761 4.2793 6.97705 4.619 6.97705 5.01021C6.97705 5.40143 7.34764 5.75145 7.82117 5.75145C8.28442 5.75145 8.65506 5.40143 8.65506 5.01021C8.65506 4.619 8.28439 4.2793 7.82117 4.2793Z" fill="#16142C"/>
</svg>
