<svg enable-background="new 0 0 48 48" viewBox="0 0 48 48" xmlns="http://www.w3.org/2000/svg"><path d="m24 46.4c-1.1 0-2.1-.4-2.8-1.2-.8-.8-1.2-1.7-1.2-2.8s.4-2.1 1.2-2.8c.8-.8 1.7-1.2 2.8-1.2s2.1.4 2.8 1.2c.8.8 1.2 1.7 1.2 2.8s-.4 2.1-1.2 2.8c-.8.8-1.7 1.2-2.8 1.2z"/><path d="m24 28c-1.1 0-2.1-.4-2.8-1.2-.8-.8-1.2-1.7-1.2-2.8s.4-2.1 1.2-2.8c.8-.8 1.7-1.2 2.8-1.2s2.1.4 2.8 1.2c.8.8 1.2 1.7 1.2 2.8s-.4 2.1-1.2 2.8c-.8.8-1.7 1.2-2.8 1.2z"/><path d="m24 9.6c-1.1 0-2.1-.4-2.8-1.2-.8-.8-1.2-1.7-1.2-2.8s.4-2.1 1.2-2.8c.8-.8 1.7-1.2 2.8-1.2s2.1.4 2.8 1.2c.8.7 1.2 1.7 1.2 2.8s-.4 2.1-1.2 2.8c-.8.8-1.7 1.2-2.8 1.2z"/></svg>