<svg clip-rule="evenodd" fill-rule="evenodd" stroke-linejoin="round" stroke-miterlimit="2" viewBox="0 0 48 48" xmlns="http://www.w3.org/2000/svg"><g transform="translate(-504)"><g id="SOLID"><path fill="#F88379" d="m531.341 2.253-3.341-.253c-12.142 0-22 9.858-22 22s9.858 22 22 22 22-9.858 22-22c0-2.326-.362-4.569-1.033-6.674-.109-.344-.396-.603-.749-.676-.354-.073-.719.05-.957.322-.57.652-1.416 1.054-2.35 1.027 0 0-.636-.019-.636-.019-.323-.01-.63.137-.826.394-.195.257-.255.592-.159.901.462 1.494.71 3.081.71 4.725 0 8.831-7.169 16-16 16s-16-7.169-16-16 7.169-16 16-16c1.939 0 3.798.346 5.518.979l1.673.727-1.108-.033c-.405-.012-.776.22-.942.589s-.093.802.184 1.096l3.879 4.117c.182.193.433.306.698.314l7.068.211c.552.016 1.013-.418 1.03-.97l.21-7.068c.008-.265-.09-.523-.272-.716l-3.879-4.117c-.277-.294-.705-.393-1.083-.249-.378.143-.632.501-.644.905l-.059 1.958c-2.63-1.772-5.663-2.991-8.932-3.49z"/></g></g></svg>