<svg width="14" height="13" viewBox="0 0 14 13" fill="none" xmlns="http://www.w3.org/2000/svg">
<path d="M1.92152 12.6451C1.61878 12.6627 1.32104 12.5621 1.0911 12.3644C0.637602 11.9082 0.637602 11.1714 1.0911 10.7152L11.0212 0.785095C11.4929 0.343732 12.233 0.368267 12.6744 0.839943C13.0735 1.26648 13.0967 1.92207 12.7288 2.3758L2.74023 12.3644C2.51325 12.5592 2.2203 12.6597 1.92152 12.6451Z" fill="#16142C"/>
<path d="M11.8402 12.6451C11.5334 12.6438 11.2393 12.522 11.0214 12.3059L1.0913 2.37574C0.671159 1.88511 0.72828 1.14674 1.21891 0.726562C1.6568 0.351563 2.30261 0.351563 2.74047 0.726562L12.7291 10.6567C13.2006 11.0982 13.225 11.8383 12.7835 12.3099C12.766 12.3287 12.7478 12.3468 12.7291 12.3644C12.4845 12.5771 12.1626 12.6787 11.8402 12.6451Z" fill="#16142C"/>
</svg>
