<svg width="15" height="16" viewBox="0 0 15 16" fill="none" xmlns="http://www.w3.org/2000/svg">
<path d="M13.0121 9.76744C13.0121 7.66119 11.2985 5.94765 9.1923 5.94765H3.52212L5.46741 7.89292C5.83108 8.25657 5.83108 8.84617 5.46743 9.20984C5.10377 9.5735 4.51417 9.57351 4.1505 9.20985L0.615529 5.67484C0.251867 5.31118 0.251867 4.72157 0.615529 4.35791L4.15051 0.823048C4.51415 0.459377 5.10376 0.459377 5.46742 0.823036C5.83108 1.18669 5.83108 1.7763 5.46742 2.13996L3.52212 4.08524H9.1923C12.3305 4.08523 14.8745 6.62923 14.8745 9.76742C14.8745 12.9056 12.3305 15.4496 9.1923 15.4496L1.27398 15.4496C0.759688 15.4496 0.342773 15.0327 0.342773 14.5184C0.342773 14.0041 0.759688 13.5872 1.27398 13.5872H9.1923C11.2985 13.5872 13.0121 11.8737 13.0121 9.76744Z" fill="#16142C"/>
</svg>
