<svg width="9" height="14" viewBox="0 0 9 14" fill="none" xmlns="http://www.w3.org/2000/svg">
<path d="M7.81786 6.46221L2.13676 1.05095C2.00536 0.925694 1.82996 0.856689 1.64293 0.856689C1.4559 0.856689 1.2805 0.925694 1.1491 1.05095L0.730721 1.44936C0.458489 1.70897 0.458489 2.13091 0.730721 2.39012L5.50128 6.93417L0.725431 11.4833C0.594036 11.6085 0.521484 11.7755 0.521484 11.9535C0.521484 12.1318 0.594036 12.2988 0.725431 12.4241L1.14381 12.8224C1.27531 12.9477 1.45061 13.0167 1.63763 13.0167C1.82466 13.0167 2.00007 12.9477 2.13146 12.8224L7.81786 7.40623C7.94956 7.28058 8.0219 7.11281 8.02148 6.93447C8.0219 6.75543 7.94956 6.58776 7.81786 6.46221Z" fill="#F88379"/>
</svg>
