<svg xmlns="http://www.w3.org/2000/svg" viewBox="0 0 48 48"><path d="M7.3 30.2a5 5 0 0 1-3.8-1.6c-1-1-1.6-2.3-1.6-3.8s.5-2.7 1.6-3.8c1-1 2.3-1.6 3.8-1.6v-6.2c0-.8.3-1.5.9-2.1s1.3-.9 2.1-.9h8.3a5 5 0 0 1 1.6-3.8c1-1 2.3-1.6 3.8-1.6s2.7.5 3.8 1.6c1 1 1.6 2.3 1.6 3.8h8.3c.8 0 1.5.3 2.1.9s.9 1.3.9 2.1v6.2a5 5 0 0 1 3.8 1.6c1 1 1.5 2.3 1.5 3.8s-.5 2.7-1.6 3.8c-1 1-2.3 1.6-3.8 1.6V40c0 .8-.3 1.5-.9 2.1s-1.3.9-2.1.9H10.3c-.8 0-1.5-.3-2.1-.9s-.9-1.3-.9-2.1zm9.9-5c.6 0 1-.2 1.4-.6s.6-.9.6-1.4c0-.6-.2-1-.6-1.4s-.9-.6-1.4-.6c-.6 0-1 .2-1.4.6s-.6.9-.6 1.4c0 .6.2 1 .6 1.4.3.4.8.6 1.4.6zm13.7 0c.6 0 1-.2 1.4-.6s.6-.9.6-1.4c0-.6-.2-1-.6-1.4s-.9-.6-1.4-.6c-.6 0-1 .2-1.4.6s-.6.9-.6 1.4c0 .6.2 1 .6 1.4.3.4.8.6 1.4.6zm-15.3 9.6h16.8v-3H15.6zM10.3 40h27.3V13.3H10.3zm0 0V13.3z"/></svg>
