<svg width="15" height="17" viewBox="0 0 15 17" fill="none" xmlns="http://www.w3.org/2000/svg">
<path d="M14.855 3.56434L11.855 0.164343C11.7606 0.0582705 11.6329 -0.000861207 11.5 9.48082e-06H1.5C0.671572 9.48082e-06 -2.48352e-07 0.761125 0 1.70001V15.3C0 16.2389 0.671572 17 1.5 17L13.5 17C14.3284 17 15 16.2389 15 15.3L15 3.96667C15.0008 3.81605 14.9486 3.67128 14.855 3.56434ZM9.5 1.13334V4.53334H5.5V1.13334H9.5ZM3.5 15.8667V11.9C3.5 11.587 3.72386 11.3333 4 11.3333H11C11.2761 11.3333 11.5 11.587 11.5 11.9V15.8667H3.5ZM14 15.3C14 15.613 13.7761 15.8667 13.5 15.8667H12.5V11.9C12.5 10.9611 11.8284 10.2 11 10.2H4C3.17157 10.2 2.5 10.9611 2.5 11.9V15.8667H1.5C1.22386 15.8667 1 15.613 1 15.3V1.70001C1 1.38705 1.22386 1.13334 1.5 1.13334H4.5V4.53334C4.5 5.15926 4.94771 5.66667 5.5 5.66667H9.5C10.0523 5.66667 10.5 5.15926 10.5 4.53334V1.13334H11.295L14 4.19901V15.3Z" fill="black"/>
</svg>
