<svg viewBox="0 0 16 16" xmlns="http://www.w3.org/2000/svg"><path d="m13.4 5.3v7.6c0 1.5-1.2 2.6-2.7 2.6h-5.3c-1.4 0-2.6-1.1-2.7-2.6v-7.6c0-.4.3-.7.7-.7s.7.3.7.7v7.6c0 .7.6 1.3 1.3 1.2h5.3c.7 0 1.3-.5 1.3-1.2v-7.6c0-.4.3-.7.7-.7s.7.3.7.7zm.6-2.1c0 .4-.3.7-.7.7h-10.6c-.4 0-.7-.3-.7-.7s.3-.7.7-.7h2.7v-1.3c0-.4.3-.7.7-.7h4c.4 0 .7.3.7.7v1.4h2.7c.2-.1.5.3.5.6zm-4.6-1.3h-2.7v.7h2.7zm-2 9.5v-4.8c0-.3-.3-.6-.7-.6-.3 0-.6.3-.6.6v4.8c0 .4.3.7.7.7.3 0 .6-.3.6-.7zm2.6 0v-4.8c0-.3-.3-.6-.6-.6-.4 0-.7.3-.7.6v4.8c0 .4.3.7.7.7.3 0 .6-.3.6-.7z"/></svg>
