<svg width="14" height="16" viewBox="0 0 14 16" fill="none" xmlns="http://www.w3.org/2000/svg">
<path d="M12.0029 4.36353C11.6123 4.36353 11.2956 4.68912 11.2956 5.09076V13.2292C11.2534 13.9947 10.6189 14.582 9.87413 14.5448H4.23049C3.48577 14.582 2.85121 13.9947 2.80898 13.2292V5.09076C2.80898 4.68912 2.49234 4.36353 2.10175 4.36353C1.71117 4.36353 1.39453 4.68912 1.39453 5.09076V13.2292C1.43656 14.7982 2.70458 16.0367 4.23049 15.9993L9.87413 15.9993C11.4 16.0367 12.6681 14.7982 12.7101 13.2292L12.7101 5.09076C12.7101 4.68912 12.3935 4.36353 12.0029 4.36353Z" fill="black"/>
<path d="M12.7103 2.1817H9.88139V0.727235C9.88139 0.325594 9.56475 0 9.17417 0H4.93083C4.54025 0 4.22361 0.325594 4.22361 0.727235V2.1817H1.39472C1.00413 2.1817 0.6875 2.5073 0.6875 2.90894C0.6875 3.31058 1.00413 3.63617 1.39472 3.63617H12.7103C13.1009 3.63617 13.4175 3.31058 13.4175 2.90894C13.4175 2.5073 13.1009 2.1817 12.7103 2.1817ZM5.63806 2.1817V1.45447H8.46695V2.1817H5.63806Z" fill="black"/>
<path d="M6.34462 11.6356V6.54498C6.34462 6.14334 6.02799 5.81775 5.6374 5.81775C5.24681 5.81775 4.93018 6.14334 4.93018 6.54498V11.6356C4.93018 12.0373 5.24681 12.3629 5.6374 12.3629C6.02799 12.3629 6.34462 12.0373 6.34462 11.6356Z" fill="black"/>
<path d="M9.17421 11.6356V6.54498C9.17421 6.14334 8.85758 5.81775 8.46699 5.81775C8.0764 5.81775 7.75977 6.14334 7.75977 6.54498V11.6356C7.75977 12.0373 8.0764 12.3629 8.46699 12.3629C8.85758 12.3629 9.17421 12.0373 9.17421 11.6356Z" fill="black"/>
</svg>
